<svg xmlns="http://www.w3.org/2000/svg" version="1.1" viewBox="0 4 2015 544">
<path transform="translate(330,4)" d="m0 0h19l12 3 16 8 12 11 7 11 5 11 2 9v20l-3 12-7 14-11 12-8 6-16 8-5 2v104l20 4 17 7 16 10 13 12 9 10 8 13 6 12 5 16 1 5v40l-4 15-6 15-10 16-11 12-11 10-16 10-15 6-11 3-1-1v-104l5-3h13l6 4 2 4v60l5-3 7-6 9-12 8-16 4-13 1-6v-22l-5-19-8-16-7-9-10-10-14-9-12-5-16-4h-23l-19 5-17 9-10 9-5 5-7 9-8 16-4 13-1 6v22l3 14 5 12 6 11 11 13 8 6v-57l4-8 4-3 5-1h8l5 4v105l-17-5-16-8-11-7-20 20 2 6 5 12 2 11v13l-3 14-8 16-11 12-10 7-12 5-11 1h-22l-10-2-13-7-12-11-7-10-5-11-3-14v-13l2-11 5-12 7-11 10-10 11-7 14-5 7-1h14l11 2 15 6 3 1 18-18 2-1-2-4-9-15-6-14-4-15-1-8-105 1-6 15-7 11-10 10-16 9-16 4h-16l-16-4-11-6-11-9-6-8-8-16-3-11v-19l5-15 5-10 8-10 9-8 16-8 8-2 16-1 13 2 15 6 12 9 8 9 8 14 4 10 104 1 2-13 5-15 7-14 8-10-2-4-12-13-6-6-21 7-5 1h-20l-12-3-14-7-12-11-8-11-6-15-2-12v-8l3-15 5-12 8-11 9-9 14-8 13-4h24l13 4 11 6 10 9 7 8 7 14 3 10 1 12-2 16-5 13-2 7 20 20 11-7 16-8 16-5 11-2v-105l-15-6-11-7-11-11-8-14-4-13-1-6v-13l4-15 7-14 11-12 8-6 12-6zm3 26-11 4-8 6-6 7-5 12v16l4 11 6 8 9 6 10 4h15l11-4 8-6 6-7 4-9 1-6v-10l-2-8-5-10-10-9-9-4-5-1zm-142 134-12 4-10 8-6 9-3 10v13l3 9 5 8 7 7 10 5 3 1h18l10-4 10-9 5-7 3-10v-13l-3-10-6-9-7-6-8-4-8-2zm-134 142-12 4-9 7-6 9-4 11v13l5 13 9 10 12 6 4 1h15l11-4 9-7 7-11 2-7v-16l-4-10-4-6-9-8-9-4-5-1zm134 143-9 3-10 6-7 9-4 9-1 5v10l3 10 5 8 5 5 5 4 9 4 6 1h8l9-2 9-5 4-3v-2h2l6-10 3-10v-10l-3-11-7-10-11-8-11-3z" fill="#8966FE"/>
<path transform="translate(1825,156)" d="m0 0h18l4 9 21 57 19 51 19 52 19 51 21 57 6 16v2h-16l-5-11-18-49-6-16v-2l-145 1-7 18-13 35-9 24h-17l3-9 16-44 20-54 17-46 21-57 19-51 12-33zm8 22-23 63-15 40-20 54-8 21v3h134l-1-5-16-44-16-43-20-54-13-35z" fill="#5E6368"/>
<path transform="translate(1337,156)" d="m0 0h15l1 1v293l-3 1h-12l-1-1-1-30-8 12-12 12-13 8-13 4-5 1h-23l-15-4-13-7-10-8-9-10-9-15-7-19-3-15-1-9v-22l3-20 6-18 9-17 11-13 13-10 13-6 14-3h20l16 4 13 7 10 9 8 9 5 8 1 1zm-73 119-14 4-11 7-7 6-8 11-7 14-4 13-2 11-1 25 2 17 4 15 5 12 7 11 7 8 13 9 15 5h22l12-4 12-7 10-10 7-11 5-11 5-19 1-7v-30l-3-16-5-15-6-11-7-9-10-9-14-7-9-2z" fill="#5E6368"/>
<path transform="translate(514,156)" d="m0 0h16l4 9 21 57 23 62 20 54 17 46 16 43 1 2 15-40 18-49 16-43 21-57 20-54 11-29 1-1h16l-3 10-18 49-19 51-18 49-17 46-20 54-13 35-1 1h-18l-5-11-23-63-40-108-34-92-7-19z" fill="#5E6368"/>
<path transform="translate(1487,261)" d="m0 0h23l16 3 14 6 12 9 8 9 7 14 4 15 1 11 1 104 2 11 3 7-5 1h-9l-3-3-3-9-1-6-1-21-8 14-10 12-12 9-12 6-16 4h-24l-15-4-14-7-10-9-6-7-5-10-3-11v-18l3-12 5-10 9-10 8-6 14-7 14-4 12-2 15-1h56l-3-24-4-11-6-10-7-7-12-7-16-4h-22l-13 3-12 6-10 9-6 11-3 9-2 7h-14l-1-1 1-13 4-11 7-11 8-8 13-8 13-5zm14 92-21 2-14 4-14 7-9 9-5 10-2 9v12l4 13 6 8 7 7 14 7 9 2h21l14-4 12-7 10-9 8-10 8-16 5-15 3-21v-7l-1-1z" fill="#5E6368"/>
<path transform="translate(831,261)" d="m0 0h22l14 3 12 5 14 9 13 13 9 14 6 14 4 15 2 16v16h-155l4 22 4 12 7 14 9 11 12 9 13 6 9 2h23l12-3 15-8 11-10 9-14 4-9h16l-1 5-8 16-8 11-10 10-14 9-15 6-10 2h-25l-16-4-16-8-9-7-10-10-9-14-7-16-4-15-2-15v-18l3-20 6-18 8-15 9-11 7-7 10-7 14-7 11-3zm0 14-15 4-11 6-12 11-7 9-8 16-5 19-1 13h139v-8l-5-22-5-12-8-12-11-11-11-7-14-5-5-1z" fill="#5E6368"/>
<path transform="translate(1065,261)" d="m0 0h20l14 3 12 6 10 8 9 12 5 12 3 11 1 6 1 18v113l-1 1h-14l-1-1-1-129-3-14-4-10-7-9-8-6-12-5-5-1h-20l-11 3-14 7-11 9-9 12-8 17-4 13-2 14-1 100h-15v-183l3-1h11l1 1 1 37 6-10 8-10 7-7 14-9 11-5z" fill="#5E6368"/>
<path transform="translate(2e3 156)" d="m0 0h15v295h-15z" fill="#5E6368"/>
<path transform="translate(333,328)" d="m0 0h12l7 3 4 5 2 5v111l-6 1h-27l-3-1-1-5v-101l2-9 7-8z" fill="#8966FE"/>
<path transform="translate(1647,394)" d="m0 0 11 1 8 4 5 5 4 6 2 7v13l-4 12-5 6-9 4-14 1-9-3-7-5-5-8-2-7v-13l4-10 7-8 8-4z" fill="#8966FE"/>
<path transform="translate(336,288)" d="m0 0h8l8 4 4 5 2 5v9l-4 8-8 5-8 1-8-3-5-5-3-6v-10l5-8 6-4z" fill="#8966FF"/>
<path transform="translate(369,309)" d="m0 0h10l7 4 3 5 1 8-3 7-6 5-2 1h-10l-7-5-3-7 1-9 4-6z" fill="#8966FE"/>
<path transform="translate(304,308)" d="m0 0 9 2 5 5 2 3 1 8-3 7-6 5-2 1h-10l-6-4-4-8 1-9 4-6z" fill="#8966FE"/>
</svg>