<?xml version="1.0" encoding="UTF-8"?>
<svg version="1.1" viewBox="0 0 2048 572" width="723" height="202" xmlns="http://www.w3.org/2000/svg">
<path transform="translate(1504)" d="m0 0h13l14 4 11 7 8 8 8 16 1 5v17l-3 10 139 139-9-32 19-10 20-7 21-4 10-1h28l19 2 24 6 23 10 18 12h4l72-72-4-11-1-5v-19l5-15 7-10 9-9 10-6 9-3 6-1h14l13 3 11 6 10 9 7 11 5 13 1 6v10l-2 10-5 12-8 11-10 8-13 6-9 2h-14l-12-3-8-4-4 1-92 92v1l27-4h6l8 16 7 21 4 21 1 11v157h-70l-1-26-9 9-13 8-10 5-20 6-12 2-11 1h-23l-17-2-23-6-20-9-18-12-4-1-72 72 6 18 1 12-2 11-4 10-7 10-8 7-10 5-11 3h-13l-12-3-9-5-10-9-7-11-3-9-1-5v-12l3-12 6-11 6-7 10-7 13-5h20l10 3 100-100v-1l-33 5-5-1-6-12-7-21-4-20-1-9v-29l2-18 5-21 8-20 7-13 9-13-2-4-111-111-14 6-12 2-13-1-13-5-9-7-7-8-6-12-2-7v-17l4-12 6-10 8-8 10-6zm3 27-8 3-7 8-2 6v10l4 8 6 5 8 3h7l9-4 6-7 2-5v-12l-5-8-6-5-6-2zm480 31-8 3-8 7-5 10v14l4 8 4 5 9 5 3 1h10l9-3 8-6 5-10 1-11-3-10-7-8-8-4-3-1zm-226 158-16 3-12 5-12 7-10 9-9 13-6 13-4 16-1 9v23l3 17 4 12 7 13 8 10 9 8 12 7 15 5 12 2h21l16-3 13-5 11-7 11-10 7-10 7-15 4-16 1-11v-19l-2-14-5-16-7-14-9-11-11-9-14-7-14-4-8-1zm-206 284-9 3-5 4-4 7-1 4v8l3 7 6 7 7 3h10l9-4 5-6 3-9-1-10-5-8-8-5z" fill="#FFFFFF"/>
<path transform="translate(1158,39)" d="m0 0h69l1 1v271l-3 25-5 19-5 13-8 16-10 14-9 10-8 8-12 9-13 8-17 8-30 8-29 3h-14l-19-2-22-5-20-8-16-9-13-10-11-10-9-11-10-15-8-17-5-15-4-18-2-15v-30l3-22 6-21 7-17 8-14 8-11 11-12 7-7 14-10 14-8 20-8 23-5 7-1h28l23 3 19 6 16 8 9 7 7 7 2 1zm-91 176-16 3-11 4-11 6-12 11-8 10-8 17-4 18-1 8v18l2 15 5 17 7 13 8 10 9 8 10 6 12 5 14 3 16 1 18-2 15-5 13-7 12-10 9-13 7-15 4-18 1-20-2-19-4-15-8-16-8-10-10-9-12-7-15-5-13-2z" fill="#FFFFFF"/>
<path transform="translate(444,151)" d="m0 0h17l21 2 22 5 16 6 16 8 16 11 15 14 13 17 12 23 7 22 3 17 1 9v35l-1 4-2 1h-226l6 18 8 15 11 12 14 9 13 5 16 3h18l15-2 16-6 13-8 14-14h76l-1 5-8 18-10 16-11 13-8 8-13 10-19 11-22 8-24 5-12 1h-32l-24-4-24-8-16-8-12-8-13-11-8-8-10-13-10-17-8-20-5-21-2-13-1-24 2-23 4-19 6-18 8-16 7-11 8-10 11-12 17-13 14-8 20-8 20-5 13-2zm6 64-18 2-16 5-12 7-10 9-8 9-7 12v1l116 1 30-1-2-6-8-12-10-10-11-7-11-5-16-4z" fill="#FFFFFF"/>
<path transform="translate(3,40)" d="m0 0h75l3 7 15 49 20 64 22 71 20 64 10 33 2-4 18-58 26-84 20-65 22-71 2-6h76l-13 41-36 114-20 64-10 31-20 63-18 57-11 35-1 2h-73l-3-7-12-38-10-31-20-63-18-57-14-45-10-31-18-57-14-44-10-32z" fill="#FFFFFF"/>
<path transform="translate(1393,151)" d="m0 0h17l21 2 22 5 16 6 16 8 12 8 13 11 7 7 12 16 9 16 8 20 5 21 2 18v158h-70l-1-26-7 7-8 6-17 9-20 6-12 2-11 1h-28l-22-4-16-5-18-8-11-7-10-8-10-9-10-11-10-15-10-21-6-19-3-15-2-19v-18l2-20 4-19 6-17 8-16 9-14 11-13 7-7 13-10 15-9 16-7 16-5 22-4zm9 64-14 1-16 4-16 8-9 7-7 7-7 10-7 16-4 18-1 18 2 20 4 15 8 16 8 10 10 9 12 7 15 5 13 2h19l13-2 12-4 13-7 12-10 10-14 7-17 3-13 1-11v-17l-2-15-5-16-7-14-8-10-10-9-16-8-13-4z" fill="#FFFFFF"/>
<path transform="translate(754,150)" d="m0 0h21l18 2 21 5 15 6 20 12 12 11 6 5 10 13 8 13 8 19 5 21 1 12v178h-70l-1-48v-126l-2-16-4-11-7-10-4-5-12-8-13-5-12-2h-19l-15 3-16 8-10 9-6 9-5 13-1 5-1 15-1 169h-70v-177l2-18 6-21 9-19 12-17 16-16 10-7 16-9 14-6 21-5z" fill="#FFFFFF"/>
<path transform="translate(1985,31)" d="m0 0h14l13 3 11 6 10 9 7 11 5 13 1 6v10l-2 10-5 12-8 11-10 8-13 6-9 2h-14l-12-3-8-4-4 1-92 92v1l27-4h6l8 16 7 21 4 21 1 11v157h-70v-27h1l1 9h2l-2-16-3-5-5-3-5-8v-5l-9-5-3-1v-11l1-6 1-5 8-11 7-15 4-16 1-11v-19l-2-14-5-16-7-14-9-11-10-8-14-7-14-4-8-1h-21l-9 1 1-4 2-11-2-5-5-3-3-5h2l-1-6-8-6-1-4-6-2-3-3 3-1-2-5 1-3v-4l16-3 10-1h28l19 2 24 6 23 10 18 12h4l72-72-4-11-1-5v-19l5-15 7-10 9-9 10-6 9-3zm2 27-8 3-8 7-5 10v14l4 8 4 5 9 5 3 1h10l9-3 8-6 5-10 1-11-3-10-7-8-8-4-3-1z" fill="#FFFFFF"/>
<path transform="translate(1957,156)" d="m0 0h70v291h-70z" fill="#FFFFFF"/>
<path transform="translate(1620,436)" d="m0 0v3l-8 13-1 5 2 2 8 1 14-10 3-2h5l-2 4-42 42 6 18 1 12-2 11-4 10-7 10-8 7-10 5-11 3h-13l-12-3-9-5-10-9-7-11-3-9-1-5v-12l3-12 6-11 6-7 10-7 13-5h20l10 3 5-3zm-65 64-9 3-5 4-4 7-1 4v8l3 7 6 7 7 3h10l9-4 5-6 3-9-1-10-5-8-8-5z" fill="#FFFFFF"/>
<path transform="translate(1829,366)" d="m0 0 2 1v6l-1 2v9l-1 2h5l1 2 6 3 1 1v6l6 8 5 3 3 8v12h-2l-1 2v-11l-8 7-9 7-14 8-19 6-7 1v-3l-5-2-6-4v-7l-6-5-7-10 1-5-8-6-8-4 6-7 5-1-4-3 2-1v-3l24-2 16-5 12-6z" fill="#FFFFFF"/>
<path transform="translate(1725,157)" d="m0 0h5l1 5v3 3l-2 2 8 4 1 4 4 2 5 4 1 4-2 3 4 5 4 2 2 6-2 10-2 4-15 5-13 7-11 9-6 8h-6v-2h-2v4l-3-1v-9l-1-2 1-3h-2l-4-7-4-5-4-6-5-6 2-1v-6h2v2h2l1-2 6-2 5 4-9-31 19-10z" fill="#FFFFFF"/>
<path transform="translate(1496,2)" d="m0 0h6l2 2-3 5 2 2 7 1 4 3 3 3v3l3 1 3 8-8-2h-8l-8 3-6 7-2 6v10l4 8 5 4 8 3h7l9-4 5-6 1-2 4 2-1 12-2 7 6 1 2 9-14 7-12 2-13-1-13-5-9-7-7-8-6-12-2-7v-17l4-12 6-10 8-8 10-6z" fill="#FFFFFF"/>
<path transform="translate(1620,436)" d="m0 0v3l-8 13-1 5 2 2 8 1 14-10 3-2h5l-2 4-42 42 6 18 1 12-2-1-5 12-4 6-5-1-4-2-2-3 1-9 2-17-4-9h-3l-7-9-2-4-3-3 5-1 6-2 1-5z" fill="#FFFFFF"/>
<path transform="translate(1674,380)" d="m0 0 3 1-1 6-3 5h-2v2h-2l-2 4-1 5v2l7 1 1 3 4 2 5 9v2l4 2 2 4v3l-5-2-10-7-4 1-26 26h-6l-17 12-8-1-3-3 2-7 8-12-5 4-35 35-2-1z" fill="#FFFFFF"/>
<path transform="translate(1624,312)" d="m0 0h3l4 2 1 4v10l3-1 1-6 5 1 3 6-2 4 2 4 5 2 2 10 3 5-1 6 2 2-3 2 4 3-2 2 4 2v3l4-3 5 1v3h2v2l-5 2-20 3-5-1-6-12-7-21-4-20v-14z" fill="#FFFFFF"/>
<path transform="translate(1556,479)" d="m0 0 7 1 1 4h-6z" fill="#FFFFFF"/>
</svg>
